#!OML:ASF E:\CV Data\Top Level 1\Subject 1\Session 1\player.ASF
:FULLY-SPECIFIED
:DEGREES
866
root 11.4301 16.7195 -10.624 9.48822 -65.4419 2.32486
lowerback 9.97607 1.31032 -2.84764
upperback 0.976544 1.45881 1.17976
thorax -4.68051 0.775521 2.63348
lowerneck -16.2317 8.78523 -3.71145
upperneck 12.3078 12.6204 0.557571
head 6.10093 5.97641 1.96969
rclavicle -4.57205e-015 1.19271e-015
rhumerus 138.643 137.83 70.8356
rradius 89.5899
rwrist 10.2408
rhand -29.8462 27.0718
rfingers 7.12502
rthumb -3.16895 -2.88435
lclavicle -4.57205e-015 1.19271e-015
lhumerus -44.4703 -32.0727 112.898
lradius 92.8175
lwrist 35.1886
lhand -34.0487 11.809
lfingers 7.12502
lthumb -7.22654 41.6656
rfemur -50.4578 -4.20791 19.7845
rtibia 43.1936
rfoot -3.88454 -12.2154
rtoes 18.4137
lfemur -3.24378 5.36599 -23.724
ltibia 23.2687
lfoot -25.1906 10.3345
ltoes -10.8807
867
root 11.4501 16.7313 -10.6294 9.14494 -65.4429 2.75737
lowerback 9.86509 1.3665 -3.1311
upperback 0.955211 1.49956 1.03734
thorax -4.64714 0.800111 2.64034
lowerneck -16.2468 8.73337 -3.79207
upperneck 12.3093 12.5484 0.690983
head 6.09119 5.94949 2.01642
rclavicle -1.8487e-014 4.77083e-015
rhumerus 138.259 137.921 70.2388
rradius 89.3576
rwrist 10.2654
rhand -29.764 26.9033
rfingers 7.12502
rthumb -3.08957 -3.0541
lclavicle -1.8487e-014 4.77083e-015
lhumerus -44.7292 -31.7717 112.815
lradius 92.7818
lwrist 35.4245
lhand -34.0061 11.8764
lfingers 7.12502
lthumb -7.18548 41.7345
rfemur -50.4547 -4.2201 19.5699
rtibia 42.956
rfoot -3.71311 -12.2922
rtoes 18.516
lfemur -3.33756 5.66331 -23.8648
ltibia 23.1497
lfoot -25.1623 9.8225
ltoes -10.8017
868
root 11.4671 16.744 -10.633 8.88917 -65.4497 3.07393
lowerback 9.76357 1.4112 -3.33708
upperback 0.933681 1.53373 0.89732
thorax -4.61694 0.819873 2.60685
lowerneck -16.2815 8.68058 -3.89581
upperneck 12.3302 12.4766 0.858356
head 6.08719 5.92384 2.07865
rclavicle 4.49253e-014 1.23246e-014
rhumerus 137.88 138.015 69.6549
rradius 89.1435
rwrist 10.2464
rhand -29.6838 26.7131
rfingers 7.12502
rthumb -3.0121 -3.2454
lclavicle 4.49253e-014 1.23246e-014
lhumerus -44.9816 -31.4724 112.72
lradius 92.7547
lwrist 35.6223
lhand -33.935 11.9468
lfingers 7.12502
lthumb -7.11683 41.8071
rfemur -50.4057 -4.22803 19.4103
rtibia 42.705
rfoot -3.56439 -12.3603
rtoes 18.585
lfemur -3.38258 5.88856 -23.9761
ltibia 23.0085
lfoot -25.0855 9.44716
ltoes -10.7653
869
root 11.4822 16.7573 -10.6354 8.75996 -65.45 3.2358
lowerback 9.68267 1.44126 -3.46301
upperback 0.905055 1.5575 0.775703
thorax -4.60335 0.83342 2.54855
lowerneck -16.3143 8.62446 -4.01586
upperneck 12.3521 12.4029 1.03311
head 6.08193 5.89717 2.14535
rclavicle -1.09332e-015 3.57812e-015
rhumerus 137.502 138.097 69.1003
rradius 88.9543
rwrist 10.1838
rhand -29.6335 26.5385
rfingers 7.12502
rthumb -2.9635 -3.42067
lclavicle -1.09332e-015 3.57812e-015
lhumerus -45.2341 -31.1857 112.637
lradius 92.7367
lwrist 35.7597
lhand -33.8792 12.0493
lfingers 7.12502
lthumb -7.06299 41.9114
rfemur -50.313 -4.2357 19.3229
rtibia 42.4351
rfoot -3.43944 -12.4236
rtoes 18.6467
lfemur -3.39361 6.00263 -24.0439
ltibia 22.8608
lfoot -24.9556 9.25566
ltoes -10.7803
870
root 11.4954 16.7709 -10.6364 8.78202 -65.4512 3.20284
lowerback 9.63052 1.45888 -3.49098
upperback 0.875101 1.57524 0.676172
thorax -4.6047 0.842485 2.45847
lowerneck -16.3532 8.57318 -4.13477
upperneck 12.381 12.3378 1.19637
head 6.08075 5.87344 2.20979
rclavicle -9.83984e-015 -1.63003e-014
rhumerus 137.139 138.163 68.5878
rradius 88.7953
rwrist 10.0973
rhand -29.6102 26.3963
rfingers 7.12502
rthumb -2.94106 -3.56317
lclavicle -9.83984e-015 -1.63003e-014
lhumerus -45.4837 -30.9265 112.564
lradius 92.7391
lwrist 35.8443
lhand -33.8758 12.1677
lfingers 7.12502
lthumb -7.05969 42.0299
rfemur -50.1641 -4.23547 19.3219
rtibia 42.1453
rfoot -3.33769 -12.4734
rtoes 18.6819
lfemur -3.36903 6.04123 -24.0477
ltibia 22.7235
lfoot -24.7909 9.22808
ltoes -10.8566
871
root 11.507 16.7847 -10.6366 8.93116 -65.4501 3.00601
lowerback 9.61022 1.47002 -3.44446
upperback 0.839732 1.59198 0.596715
thorax -4.6279 0.850177 2.34691
lowerneck -16.3909 8.52609 -4.23218
upperneck 12.4123 12.2777 1.33351
head 6.08331 5.85069 2.2637
rclavicle -6.30147e-014 -2.46493e-014
rhumerus 136.805 138.223 68.1338
rradius 88.6749
rwrist 9.99011
rhand -29.5861 26.2946
rfingers 7.12502
rthumb -2.91775 -3.66522
lclavicle -6.30147e-014 -2.46493e-014
lhumerus -45.7489 -30.7015 112.531
lradius 92.7634
lwrist 35.8402
lhand -33.9046 12.2751
lfingers 7.12502
lthumb -7.08747 42.1364
rfemur -49.9687 -4.22913 19.3946
rtibia 41.8413
rfoot -3.25657 -12.5071
rtoes 18.6735
lfemur -3.32339 6.03457 -23.9925
ltibia 22.6071
lfoot -24.6027 9.3085
ltoes -10.9235
872
root 11.5168 16.798 -10.6366 9.14607 -65.4444 2.72017
lowerback 9.61438 1.46992 -3.3663
upperback 0.798432 1.59697 0.533272
thorax -4.6697 0.851906 2.23536
lowerneck -16.4261 8.49063 -4.31188
upperneck 12.4425 12.2326 1.44812
head 6.08737 5.83412 2.30934
rclavicle -9.54166e-015 -1.76918e-014
rhumerus 136.498 138.259 67.7378
rradius 88.6043
rwrist 9.85883
rhand -29.5562 26.2407
rfingers 7.12502
rthumb -2.88888 -3.71944
lclavicle -9.54166e-015 -1.76918e-014
lhumerus -46.0057 -30.4842 112.513
lradius 92.8148
lwrist 35.7614
lhand -33.9716 12.3514
lfingers 7.12502
lthumb -7.15217 42.2105
rfemur -49.7441 -4.22084 19.5076
rtibia 41.5347
rfoot -3.19576 -12.5268
rtoes 18.6383
lfemur -3.26948 6.04358 -23.8988
ltibia 22.5156
lfoot -24.4076 9.42871
ltoes -10.9992
